<?xml version="1.0" encoding="utf-8"?>
<!-- Generator: Adobe Illustrator 22.0.1, SVG Export Plug-In . SVG Version: 6.00 Build 0)  -->
<svg version="1.1" id="Camada_1" xmlns="http://www.w3.org/2000/svg" xmlns:xlink="http://www.w3.org/1999/xlink" x="0px" y="0px"
	 viewBox="0 0 84 73.9" style="enable-background:new 0 0 84 73.9;" xml:space="preserve">
<style type="text/css">
	.st0{fill:#8AC0B7;}
</style>
<path class="st0" d="M83.5,35.9c-0.7-0.8-2-0.8-2.8-0.1l-7.9,7.4L54,23.2L75,3.4c0.8-0.7,0.8-2,0.1-2.8c-0.7-0.8-2-0.8-2.8-0.1
	L49.9,21.7c-0.8,0.7-0.8,2-0.1,2.8l1.1,1.2l-0.5,0.5l-9.8-0.9c-1.8-0.2-3.6,0.1-5.2,0.9l-7.1,3.4l-4.6-0.7L24,28
	c0.2-0.5,0.2-1,0-1.5c-0.2-0.5-0.6-0.9-1.1-1l-18-7c-1-0.4-2.2,0.1-2.6,1.1c-0.4,1,0.1,2.2,1.1,2.6l16.1,6.3l-0.5,1.3c0,0,0,0,0,0
	L9.7,54.1l-7-2.7c-1-0.4-2.2,0.1-2.6,1.1c-0.4,1,0.1,2.2,1.1,2.6l8.8,3.4c0.2,0.1,0.5,0.1,0.7,0.1c0.3,0,0.5-0.1,0.8-0.2
	c0.5-0.2,0.9-0.6,1-1.1l1.8-4.6l2.6,1.5l-0.1,0.1c-1.6,2.6-0.8,5.9,1.7,7.6c0,0,0,0,0,0c0.9,0.6,1.9,0.8,2.9,0.8
	c0.3,0,0.5,0,0.7-0.1c0.4,1.2,1.2,2.3,2.3,2.9c0.9,0.6,1.9,0.8,2.9,0.8c0.3,0,0.5,0,0.7-0.1c0.4,1.2,1.2,2.3,2.3,2.9c0,0,0,0,0,0
	c0.9,0.6,1.9,0.8,2.9,0.8c0.3,0,0.5,0,0.7-0.1c0.4,1.2,1.2,2.2,2.3,2.9c0.9,0.6,1.9,0.8,2.9,0.8c0.4,0,0.8,0,1.2-0.1
	c1.4-0.3,2.6-1.2,3.4-2.4l0.8-1.2l0.9,0.5c0.9,0.5,1.8,0.7,2.8,0.7c1.9,0,3.7-0.9,4.7-2.7c0.4-0.7,0.7-1.5,0.8-2.2
	c0.1,0,0.1,0,0.2,0c0.4,0,0.9-0.1,1.3-0.2c1.4-0.3,2.6-1.2,3.4-2.5c0.4-0.7,0.7-1.4,0.8-2.1c0.1,0,0.2,0,0.3,0
	c1.8,0,3.6-0.9,4.7-2.6c0.4-0.7,0.7-1.4,0.8-2.2c0,0,0.1,0,0.1,0c1.8,0,3.6-0.9,4.7-2.6c1.5-2.5,0.8-5.8-1.6-7.4l1.2-1.3l1.6,1.7
	c0.4,0.4,0.9,0.6,1.4,0.6c0,0,0,0,0.1,0c0.5,0,1-0.2,1.4-0.5l9.3-8.7C84.2,37.9,84.2,36.7,83.5,35.9z M20.7,58.5
	c-0.7-0.5-0.9-1.4-0.5-2.1l6.2-9.9c0.5-0.7,1.4-0.9,2.1-0.5c0.7,0.5,0.9,1.4,0.5,2.1L22.9,58C22.4,58.7,21.5,59,20.7,58.5z
	 M26.7,62.2c-0.3-0.2-0.6-0.6-0.7-1c-0.1-0.4,0-0.8,0.2-1.2l5.1-8.1c0.2-0.3,0.6-0.6,1-0.7c0.1,0,0.2,0,0.3,0c0.3,0,0.6,0.1,0.8,0.2
	c0.3,0.2,0.6,0.6,0.7,1c0.1,0.4,0,0.8-0.2,1.2l-5.1,8.1c-0.2,0.3-0.6,0.6-1,0.7C27.5,62.5,27,62.5,26.7,62.2z M32.6,66
	c-0.3-0.2-0.6-0.6-0.7-1c-0.1-0.4,0-0.8,0.2-1.2l3.8-6.1c0.5-0.7,1.4-0.9,2.1-0.5c0.7,0.5,0.9,1.4,0.5,2.1l-3.8,6.1
	C34.3,66.2,33.4,66.4,32.6,66z M38.6,69.7c-0.7-0.5-0.9-1.4-0.5-2.1l2.6-4.1c0.3-0.5,0.8-0.7,1.3-0.7c0.3,0,0.6,0.1,0.8,0.2
	c0.3,0.2,0.6,0.6,0.7,1c0.1,0.4,0,0.8-0.2,1.2l-2.6,4.1C40.3,69.9,39.3,70.1,38.6,69.7z M49.8,66.6c-0.5,0.7-1.4,1-2.1,0.6l-0.8-0.4
	c0.5-1.1,0.7-2.3,0.5-3.5c0,0,0.1,0.1,0.1,0.1l1.8,1.1C50,64.9,50.3,65.9,49.8,66.6z M66.7,52.3c-0.4,0.7-1.4,1-2.1,0.5l-1.9-1.2
	c0,0,0,0,0,0l-7.2-4.4c-0.1,0-0.2-0.1-0.2-0.1c-0.5-0.2-1.1-0.2-1.6,0c-0.3,0.2-0.7,0.4-0.9,0.8c-0.1,0.1-0.1,0.2-0.2,0.4
	c-0.2,0.6-0.1,1.4,0.3,1.9c0.1,0.2,0.3,0.3,0.5,0.5l5.5,3.4l1.7,1.1c0.3,0.2,0.6,0.6,0.7,1c0.1,0.4,0,0.8-0.2,1.2
	c-0.4,0.7-1.4,0.9-2.1,0.5L57,56.3c0,0,0,0,0,0l-1.8-1.1c0,0,0,0,0,0l-2.9-1.8c-0.9-0.6-2.1-0.3-2.7,0.7c-0.6,0.9-0.3,2.1,0.7,2.7
	l3.8,2.4l0.9,0.5c0.4,0.2,0.6,0.6,0.7,1c0.1,0.4,0,0.8-0.2,1.2c-0.2,0.3-0.6,0.6-1,0.7c-0.4,0.1-0.8,0-1.2-0.2L49.5,60
	c-0.9-0.6-2.1-0.3-2.7,0.7c-0.1,0.2-0.2,0.4-0.3,0.7c-0.4-0.6-1-1.2-1.7-1.6c-0.7-0.4-1.4-0.7-2.1-0.8c0.1-1.9-0.8-3.9-2.6-5
	c-0.7-0.4-1.4-0.7-2.2-0.8c0.1-1.9-0.8-3.8-2.6-4.9c-0.7-0.4-1.4-0.7-2.2-0.8c0.1-1.9-0.9-3.7-2.6-4.8c-1.2-0.8-2.7-1-4.1-0.7
	c-1.4,0.3-2.6,1.2-3.4,2.4l-4.1,6.5L15.9,49l6.4-16.5l1.9,0.3c-0.6,1.4-0.7,3.1,0,4.6c0.6,1.3,1.7,2.3,3.1,2.8
	c1.4,0.5,2.9,0.4,4.2-0.2l6.7-3.2c1.2-0.6,2.5-0.8,3.8-0.7c1.1,0.1,2.3,0.5,3.2,1.1l21,12.9c0.3,0.2,0.6,0.6,0.7,1
	C67,51.5,67,51.9,66.7,52.3z M65.1,44.8L47.3,33.9c-1.5-0.9-3.2-1.5-5-1.6c-2-0.2-4,0.2-5.8,1l-6.7,3.2c-0.4,0.2-0.8,0.2-1.2,0.1
	c-0.4-0.1-0.7-0.4-0.9-0.8c-0.2-0.4-0.2-0.8-0.1-1.2c0.1-0.4,0.4-0.7,0.8-0.9l8.6-4c1-0.5,2.1-0.7,3.2-0.6l10.6,1
	c0.6,0,1.1-0.1,1.5-0.5l1.2-1.1L67,42.8L65.1,44.8z"/>
</svg>
