<?xml version="1.0" encoding="utf-8"?>
<!-- Generator: Adobe Illustrator 22.0.1, SVG Export Plug-In . SVG Version: 6.00 Build 0)  -->
<svg version="1.1" id="Camada_1" xmlns="http://www.w3.org/2000/svg" xmlns:xlink="http://www.w3.org/1999/xlink" x="0px" y="0px"
	 viewBox="0 0 73.2 89.1" style="enable-background:new 0 0 73.2 89.1;" xml:space="preserve">
<style type="text/css">
	.st0{fill:#8AC0B7;}
	.st1{opacity:0.43;fill:#8AC0B7;}
</style>
<g>
	<path class="st0" d="M15.2,24.5c0.4,0.6,1.1,0.9,1.7,0.9c0.4,0,0.8-0.1,1.2-0.4c0.9-0.7,1.2-2,0.5-2.9l-5.2-7.3
		c-0.7-0.9-2-1.2-2.9-0.5c-0.9,0.7-1.2,2-0.5,2.9L15.2,24.5z"/>
	<path class="st0" d="M21.3,31.6c0.5,0,1.1-0.2,1.5-0.6c0.4-0.4,0.6-0.9,0.6-1.5c0-0.5-0.2-1.1-0.6-1.5c-0.8-0.8-2.2-0.8-3,0
		c-0.4,0.4-0.6,0.9-0.6,1.5s0.2,1.1,0.6,1.5C20.2,31.3,20.7,31.6,21.3,31.6z"/>
	<path class="st0" d="M36.1,27.4c0.4-0.4,0.6-0.9,0.6-1.5s-0.2-1.1-0.6-1.5c-0.8-0.8-2.2-0.8-3,0c-0.4,0.4-0.6,0.9-0.6,1.5
		s0.2,1.1,0.6,1.5c0.4,0.4,0.9,0.6,1.5,0.6S35.7,27.8,36.1,27.4z"/>
	<path class="st0" d="M29.3,11.3c1.1-0.4,1.7-1.5,1.4-2.6c-0.5-1.5-0.3-2.7,0.5-3.5c1-1,2.8-1.3,4.4-0.7c1,0.4,2.3,1.3,2.6,3.5
		c0.2,2.1-0.8,3.2-2.6,5c-1.5,1.5-3.2,3.2-3.7,5.8c-0.2,1.1,0.5,2.2,1.7,2.4c0.1,0,0.3,0,0.4,0c1,0,1.9-0.7,2.1-1.7
		c0.3-1.3,1.3-2.4,2.5-3.6c1.9-1.9,4.3-4.2,3.8-8.4c-0.3-3.3-2.3-5.9-5.3-7c-3-1.1-6.5-0.5-8.7,1.6c-2,1.9-2.6,4.8-1.6,7.8
		C27,11.1,28.2,11.7,29.3,11.3z"/>
	<path class="st0" d="M49.7,30.6c0.6,0,1.1-0.2,1.5-0.6c0.4-0.4,0.6-0.9,0.6-1.5s-0.2-1.1-0.6-1.5c-0.8-0.8-2.2-0.8-3,0
		c-0.4,0.4-0.6,0.9-0.6,1.5s0.2,1.1,0.6,1.5C48.6,30.4,49.1,30.6,49.7,30.6z"/>
	<path class="st0" d="M55.6,18.4c-1.4,0.4-3.2,0.9-4.6,2.4c-0.8,0.9-0.7,2.2,0.2,3c0.4,0.3,0.9,0.5,1.4,0.5c0.6,0,1.2-0.2,1.6-0.7
		c0.5-0.5,1.2-0.8,2.5-1.1c1.8-0.5,4.4-1.2,5.7-4.1c1-2.3,0.7-4.8-0.9-6.7c-1.6-1.9-4.2-2.8-6.5-2.3c-2.1,0.5-3.6,2.2-4.2,4.6
		c-0.2,1.1,0.5,2.2,1.6,2.5c1.1,0.2,2.2-0.5,2.5-1.6c0.2-0.8,0.5-1.3,1.1-1.5c0.7-0.2,1.7,0.2,2.2,0.9c0.6,0.7,0.6,1.4,0.2,2.3
		C58.1,17.6,57.4,17.9,55.6,18.4z"/>
	<path class="st0" d="M36.6,31.4c-15.9,0-28.8,12.9-28.8,28.8c0,15.9,12.9,28.8,28.8,28.8s28.8-12.9,28.8-28.8
		C65.4,44.4,52.5,31.4,36.6,31.4z M36.6,84.9C23,84.9,12,73.9,12,60.3C12,46.7,23,35.6,36.6,35.6c13.6,0,24.6,11.1,24.6,24.6
		C61.3,73.9,50.2,84.9,36.6,84.9z"/>
	<path class="st0" d="M2.5,54.6c0.2,0,0.3,0.1,0.5,0.1c1,0,1.8-0.7,2-1.6c0.9-4.2,2.7-8,5.2-11.5c0.7-0.9,0.4-2.3-0.5-2.9
		c-0.9-0.7-2.3-0.4-2.9,0.5C3.9,43,2,47.4,0.9,52.1C0.6,53.3,1.4,54.4,2.5,54.6z"/>
	<path class="st1" d="M12.7,87.2c0.5,0,1.1-0.2,1.5-0.6c0.8-0.8,0.8-2.2-0.1-3c-6.4-6.2-9.9-14.5-9.9-23.4c0-1.2-0.9-2.1-2.1-2.1
		S0,59.1,0,60.3c0,10,4,19.4,11.2,26.4C11.6,87,12.2,87.2,12.7,87.2z"/>
	<path class="st0" d="M65.2,79.7c0.3,0.2,0.7,0.3,1.1,0.3c0.7,0,1.4-0.4,1.8-1c1.8-3.1,3.2-6.4,4.1-9.9c0.3-1.1-0.4-2.3-1.5-2.5
		c-1.1-0.3-2.3,0.4-2.5,1.5c-0.8,3.1-2,6-3.6,8.8C63.9,77.8,64.2,79.1,65.2,79.7z"/>
	<path class="st1" d="M60,34.8c-0.8,0.8-0.9,2.1-0.1,3c5.8,6.1,9,14,9,22.5c0,1.2,0.9,2.1,2.1,2.1s2.1-0.9,2.1-2.1
		c0-9.5-3.6-18.5-10.2-25.4C62.2,34.1,60.9,34,60,34.8z"/>
	<path class="st0" d="M39.2,51c2.6,0,4.8,1.6,4.8,3.5c0,1.2,0.9,2.1,2.1,2.1s2.1-0.9,2.1-2.1c0-4.3-4-7.7-9-7.7h-0.3v-1.2
		c0-1.2-0.9-2.1-2.1-2.1s-2.1,0.9-2.1,2.1v1.2h-1.1c-5,0-9,3.5-9,7.7v0.3c0,2.4,1.7,4.5,5,6.2c0.2,0.1,0.4,0.2,0.5,0.2l0.3,0.1
		c0,0,0,0,0.1,0l4.2,0.8v7.6h-1.1c-2.6,0-4.8-1.6-4.8-3.5c0-1.2-0.9-2.1-2.1-2.1s-2.1,0.9-2.1,2.1c0,4.3,4,7.7,9,7.7h1.1v1.4
		c0,1.2,0.9,2.1,2.1,2.1s2.1-0.9,2.1-2.1V74h0.3c5,0,9-3.5,9-7.7v-0.3c0-1.7-0.9-4.1-5.2-6.3c-0.1,0-0.1,0-0.2-0.1c0,0-0.1,0-0.1,0
		c-0.1,0-0.1-0.1-0.2-0.1l-0.1,0c0,0,0,0,0,0l-3.5-0.7V51H39.2z M44,66.2c0,1.9-2.2,3.5-4.8,3.5h-0.3V63l2.4,0.5
		c2.1,1.1,2.6,2.1,2.6,2.5L44,66.2z M34.7,57.9l-3.4-0.7c-1.9-1-2.5-1.9-2.5-2.4v-0.3c0-1.9,2.2-3.5,4.8-3.5h1.1L34.7,57.9
		L34.7,57.9z"/>
</g>
</svg>
