<?xml version="1.0" encoding="utf-8"?>
<!-- Generator: Adobe Illustrator 22.0.1, SVG Export Plug-In . SVG Version: 6.00 Build 0)  -->
<svg version="1.1" id="Camada_1" xmlns="http://www.w3.org/2000/svg" xmlns:xlink="http://www.w3.org/1999/xlink" x="0px" y="0px"
	 viewBox="0 0 363 113.8" style="enable-background:new 0 0 363 113.8;" xml:space="preserve">
<style type="text/css">
	.st0{fill:#214B67;}
	.st1{fill:#444242;stroke:#444242;stroke-miterlimit:10;}
	.st2{fill:#8EBEB7;}
	.st3{opacity:0.43;fill:#8EBEB7;}
	.st4{fill:none;stroke:#5077A8;stroke-width:1.6027;stroke-miterlimit:10;}
</style>
<g>
	<g>
		<path class="st0" d="M94.1,87.3v-28c0-0.9,0.2-1.7,0.5-2.4s0.8-1.4,1.3-2s1.2-1,2-1.3c0.7-0.3,1.6-0.5,2.4-0.5h9.1
			c1.5,0,2.9,0.3,4.2,0.8s2.5,1.3,3.6,2.4c1,1.1,1.8,2.3,2.4,3.6c0.6,1.3,0.8,2.7,0.8,4.2c0,1.5-0.3,2.9-0.8,4.2s-1.4,2.5-2.4,3.6
			c-1.1,1-2.3,1.8-3.6,2.4s-2.7,0.8-4.2,0.8h-9.9v12.2H94.1z M109.4,69.8c0.8,0,1.5-0.2,2.2-0.5c0.7-0.3,1.3-0.7,1.8-1.2
			c0.5-0.5,0.9-1.1,1.2-1.8s0.5-1.4,0.5-2.2c0-0.8-0.2-1.5-0.5-2.2s-0.7-1.3-1.2-1.8c-0.5-0.5-1.1-0.9-1.8-1.2s-1.4-0.5-2.2-0.5
			h-9.1c-0.5,0-0.8,0.3-0.8,0.8v10.5H109.4z"/>
		<path class="st0" d="M141.1,73.2v5.7c0,1.1-0.2,2.1-0.6,3.1c-0.4,0.9-1,1.8-1.9,2.6c-1.4,1.3-3.1,2.1-5,2.5
			c-0.4,0.1-0.7,0.1-1.1,0.2c-0.4,0-0.8,0.1-1.2,0.1c-1.1,0-2.2-0.1-3.2-0.4c-1-0.3-2-0.7-2.9-1.3c-0.9-0.6-1.6-1.2-2.2-2
			c-0.6-0.8-1-1.6-1.3-2.6c-0.3-0.9-0.3-1.9-0.2-2.8c0.1-1,0.5-2,1.1-2.9c0.6-0.9,1.4-1.7,2.4-2.3c1.3-0.8,2.7-1.4,4.2-1.7
			c1.5-0.3,2.8-0.5,4-0.5h1.9h0.3c-0.2-0.5-0.5-1-1-1.3c-0.5-0.4-1.1-0.6-1.7-0.8c-0.6-0.1-1.3-0.2-2-0.2c-0.6,0-1.2,0-1.9,0.1
			c-0.5,0.1-1.1,0.1-1.6,0.3c-0.5,0.1-1.1,0.2-1.5,0.4c-0.5,0.1-1,0.3-1.6,0.5l-1.6-5c0.5-0.2,1.1-0.3,1.8-0.5
			c0.5-0.1,1.2-0.3,1.8-0.4c0.7-0.1,1.4-0.3,2.1-0.3h0c0.5-0.1,0.9-0.1,1.4-0.1c0.4,0,0.9,0,1.3,0c2.7,0,4.9,0.6,6.6,1.9
			c1.2,0.8,2.1,1.9,2.6,3.2v0C140.8,69.8,141.1,71.4,141.1,73.2z M135,76h-0.6c-0.1,0-0.5,0-1,0c-0.4,0-0.8,0.1-1.1,0.1
			c-0.4,0-0.7,0.1-1.1,0.1c-0.7,0.1-1.4,0.3-2.2,0.5c-0.7,0.2-1.4,0.6-1.9,1.1l-0.3,0.4c-0.1,0.1-0.2,0.3-0.2,0.5
			c-0.1,0.5,0.1,1,0.5,1.6c0.4,0.6,1,1,1.8,1.3s1.5,0.4,2.4,0.4c0.5,0,1,0,1.3-0.1c0.4-0.1,0.8-0.2,1.2-0.4c0.4-0.2,0.8-0.4,1.1-0.6
			c0.3-0.3,0.6-0.6,0.8-0.9c0.2-0.3,0.3-0.7,0.3-1.1V76H135z"/>
		<path class="st0" d="M165.6,68.5c0.5,1.1,0.7,2.3,0.7,3.6v13.7c0,1.8-0.3,3.4-0.9,4.8c-0.6,1.3-1.5,2.4-2.7,3.2
			c-0.8,0.7-1.8,1.1-3,1.4c-1.1,0.3-2.4,0.5-3.8,0.5c-0.4,0-0.9,0-1.3,0c-0.4,0-0.8-0.1-1.3-0.1h0c-0.7-0.1-1.4-0.2-2-0.3
			c-0.7-0.2-1.3-0.3-1.8-0.5c-0.6-0.2-1.2-0.3-1.8-0.5l1.7-5c0.5,0.2,1,0.3,1.6,0.5c0.5,0.1,1,0.3,1.5,0.4s1.1,0.2,1.6,0.3
			c0.6,0.1,1.2,0.1,1.9,0.1c0.7,0,1.3-0.1,2-0.2c0.7-0.1,1.2-0.4,1.7-0.7c0.9-0.7,1.3-1.7,1.4-3.2c-0.7,0.3-1.5,0.5-2.3,0.7
			s-1.6,0.2-2.4,0.2c-1.6,0-3.1-0.3-4.6-0.9c-1.5-0.6-2.8-1.5-3.9-2.6c-1.1-1.2-2-2.5-2.6-3.9c-0.6-1.5-0.9-3-0.9-4.6
			s0.3-3.1,0.9-4.6c0.6-1.5,1.5-2.7,2.6-3.9c1.8-1.8,4-3,6.4-3.4c0.3-0.1,0.7-0.1,1-0.1c0.4,0,0.7,0,1.1,0c1.4,0,2.6,0.2,3.8,0.6
			c1.2,0.4,2.3,1,3.2,1.7C164.4,66.5,165.1,67.4,165.6,68.5z M160,69.7c-0.4-0.3-0.9-0.6-1.5-0.8c-0.6-0.2-1.3-0.3-2-0.3
			c-0.9,0-1.8,0.2-2.6,0.5s-1.5,0.8-2.1,1.4c-0.6,0.6-1.1,1.3-1.4,2.1c-0.4,0.8-0.5,1.7-0.5,2.6s0.2,1.8,0.5,2.6
			c0.4,0.8,0.8,1.5,1.4,2.1c0.6,0.6,1.3,1.1,2.1,1.4s1.7,0.5,2.6,0.5c1.8,0,3.4-0.6,4.6-1.9V72C161,71,160.7,70.2,160,69.7z"/>
		<path class="st0" d="M171.5,79.9c-0.6-1.4-0.9-3-0.9-4.6v-12h5.3v12c0,0.9,0.2,1.8,0.5,2.7c0.4,0.8,0.8,1.5,1.4,2.1
			s1.3,1.1,2.1,1.4c0.8,0.3,1.7,0.5,2.6,0.5c1.5,0,2.7-0.4,3.6-1.1c0.7-0.5,1-1.4,1-2.4V63.3h5.3v15.2c0,1.3-0.2,2.5-0.7,3.6
			c-0.5,1.1-1.2,2-2.2,2.8c-0.9,0.7-2,1.3-3.2,1.7c-1.2,0.4-2.5,0.6-3.8,0.6c-0.7,0-1.4,0-2.1-0.1c-1.2-0.2-2.4-0.6-3.5-1.2
			c-1.1-0.6-2.1-1.3-3-2.2C173,82.6,172.1,81.3,171.5,79.9z"/>
		<path class="st0" d="M203.1,86.4c-1.5-0.6-2.7-1.5-3.9-2.6c-1.1-1.1-2-2.4-2.6-3.9c-0.6-1.5-0.9-3-0.9-4.6c0-1.6,0.3-3.1,0.9-4.6
			c0.6-1.5,1.5-2.7,2.6-3.9c1.1-1.2,2.4-2,3.9-2.6c1.5-0.6,3-0.9,4.6-0.9c1.8,0,3.4,0.3,4.8,1c1.4,0.7,2.6,1.6,3.5,2.8
			c0.5,0.7,1,1.4,1.2,2.2s0.4,1.5,0.4,2.3c0,0.9-0.2,1.8-0.6,2.6c-0.6,1.2-1.5,2.1-2.6,2.7c-1.2,0.7-2.5,1-4.1,1h-8.8
			c0.5,1.3,1.3,2.3,2.4,3c1.1,0.7,2.4,1.1,3.8,1.1c0.8,0,1.7-0.2,2.6-0.6c0.9-0.4,1.7-0.9,2.6-1.7l3.5,3.8c-1.4,1.2-2.8,2.1-4.2,2.7
			c-1.5,0.6-2.9,0.9-4.4,0.9C206.1,87.3,204.6,87,203.1,86.4z M211.7,72.5c0.4-0.1,0.6-0.3,0.7-0.6c0.1-0.3,0.1-0.5,0-0.9
			s-0.3-0.6-0.5-0.8c-0.9-1.2-2.2-1.7-4.1-1.7c-1.5,0-2.7,0.4-3.8,1.1c-1.1,0.7-1.9,1.8-2.4,3h8.8C210.8,72.7,211.3,72.6,211.7,72.5
			z"/>
	</g>
	<g>
		<path class="st1" d="M255.1,74.3c0.8,0.9,1.4,1.9,1.7,3.1c0.4,1.2,0.5,2.4,0.3,3.7l-0.7,6.3h-0.8l0.7-6.3c0.1-1.2,0-2.3-0.3-3.4
			c-0.3-1-0.8-2-1.6-2.8s-1.6-1.4-2.6-1.9c-1-0.5-2.1-0.7-3.3-0.7h-14.8l-1.8,15h-0.8l3.7-29.9c0.1-0.6,0.2-1.1,0.5-1.6
			c0.3-0.5,0.6-1,1.1-1.4c0.4-0.4,0.9-0.7,1.5-0.9s1.1-0.3,1.7-0.3h11.3c1.3,0,2.5,0.2,3.6,0.7c1.1,0.5,2,1.2,2.8,2.1
			c0.8,0.9,1.4,2,1.7,3.1c0.3,1.2,0.4,2.4,0.3,3.7c-0.1,1.1-0.4,2.1-0.9,3.1c-0.4,1-1,1.8-1.7,2.7c-0.7,0.8-1.5,1.5-2.4,2.1
			c-0.9,0.6-1.9,1-2.9,1.3C252.9,72.3,254.1,73.1,255.1,74.3z M252.1,70.8c1.1-0.5,2.1-1.1,3-1.9c0.9-0.8,1.7-1.7,2.2-2.8
			s1-2.2,1.1-3.4c0.1-1.2,0-2.3-0.3-3.4c-0.3-1.1-0.8-2-1.6-2.8c-0.7-0.8-1.6-1.4-2.6-1.9c-1-0.5-2.1-0.7-3.3-0.7h-11.3
			c-0.9,0-1.8,0.3-2.5,1c-0.7,0.7-1.2,1.5-1.3,2.4l-1.8,14.1h14.8C249.8,71.5,251,71.3,252.1,70.8z"/>
		<path class="st1" d="M280.2,72.6l-0.9,7.2c-0.1,0.9-0.4,1.8-0.9,2.6c-0.5,0.8-1.1,1.6-1.9,2.2c-0.7,0.6-1.5,1.1-2.4,1.5
			c-0.9,0.4-1.8,0.7-2.8,0.9c-0.4,0.1-0.8,0.1-1.2,0.2c-0.4,0-0.8,0-1.2,0c-1.2,0-2.2-0.1-3.3-0.4c-1-0.3-1.9-0.6-2.6-1.2
			c-0.7-0.5-1.3-1.1-1.8-1.8c-0.4-0.7-0.7-1.4-0.9-2.2s-0.1-1.6,0.1-2.4c0.2-0.9,0.7-1.7,1.3-2.4s1.4-1.4,2.4-2
			c1.5-0.9,3.1-1.5,4.7-1.8c1.6-0.3,3.1-0.5,4.5-0.5c0.3,0,0.5,0,0.8,0h0.9c0.7,0,1.5,0,2.4,0c0.8,0,1.5,0.1,2,0.1
			c0.3-3.1-0.4-5.4-1.9-6.7c-0.8-0.6-1.8-1.1-2.9-1.4c-1.1-0.3-2.2-0.4-3.4-0.4c-1.3,0-2.5,0.1-3.6,0.3s-2,0.3-2.8,0.5l-0.1-0.7
			c0.8-0.2,1.7-0.4,2.8-0.6s2.2-0.3,3.3-0.3c3.1,0,5.5,0.6,7.2,2C279.9,66.8,280.6,69.2,280.2,72.6z M277.3,73.3c-0.9,0-1.7,0-2.4,0
			c-1.3,0-2.6,0.1-3.8,0.3c-1.1,0.1-2.2,0.4-3.3,0.7c-1.1,0.3-2.2,0.7-3.1,1.3c-0.3,0.1-0.5,0.3-0.9,0.6c-0.3,0.2-0.6,0.5-0.9,0.8
			s-0.6,0.7-0.9,1.1c-0.3,0.4-0.5,0.8-0.6,1.3c-0.1,0.7-0.2,1.3,0,2c0.1,0.7,0.4,1.4,0.8,2c0.7,1.1,1.7,1.9,3,2.4
			c1.3,0.5,2.7,0.7,4,0.7c0.4,0,0.8,0,1.2,0c0.4,0,0.7-0.1,1.1-0.1c0.8-0.1,1.6-0.4,2.4-0.8c0.8-0.4,1.5-0.8,2.2-1.4
			c0.7-0.5,1.2-1.2,1.7-1.9c0.5-0.7,0.8-1.5,0.9-2.5l0.8-6.4C278.8,73.4,278.1,73.4,277.3,73.3z M274.1,58.2h-0.9l2.1-3.4h0.9
			L274.1,58.2z"/>
		<path class="st1" d="M303.1,81.5c-0.9,1.2-1.9,2.2-3.1,3.1c-1.1,0.9-2.4,1.5-3.8,2c-0.7,0.2-1.4,0.4-2.1,0.5
			c-0.7,0.1-1.4,0.2-2.1,0.2c-1.6,0-3-0.3-4.4-0.9c-1.2-0.5-2.4-1.3-3.6-2.2l-1.5,12.2h-0.8l2.9-23.7c0.1-1.1,0.5-2.1,0.9-3.1
			c0.5-1,1.1-1.9,1.9-2.7c1.5-1.5,3.3-2.5,5.4-3.1c0.9-0.2,1.9-0.3,2.8-0.3c1.5,0,2.9,0.3,4.2,0.9c2.4,1.1,4.2,2.9,5.3,5.5
			c0.5,1.3,0.8,2.6,0.8,4s-0.3,2.8-0.8,4.2C304.6,79.1,303.9,80.3,303.1,81.5z M302.7,67.4c-0.7-0.7-1.4-1.4-2.2-1.8
			c-0.8-0.5-1.6-0.8-2.5-1s-1.7-0.3-2.6-0.3c-0.9,0-1.8,0.1-2.6,0.3s-1.6,0.5-2.4,0.9c-0.8,0.4-1.6,1-2.3,1.6
			c-0.7,0.7-1.3,1.5-1.8,2.4c-0.5,0.9-0.8,2-1,3.1L284.1,83c1.3,1.3,2.7,2.2,4.1,2.7c1.4,0.5,2.8,0.8,4.1,0.7c1.3,0,2.6-0.3,3.8-0.8
			s2.3-1.1,3.3-1.8c1-0.7,2-1.6,2.8-2.7c0.8-1,1.5-2.2,2-3.4s0.8-2.5,0.8-3.8c0-1.3-0.2-2.6-0.8-3.9C303.9,69,303.3,68.1,302.7,67.4
			z"/>
		<path class="st1" d="M311.5,63.3l-2.9,23.9h-0.9l2.9-23.9H311.5z M312.3,56.1h-0.9l0.1-0.9h0.9L312.3,56.1z"/>
		<path class="st1" d="M316,69.1c0.9-1.2,1.9-2.2,3.1-3.1c1.1-0.9,2.4-1.5,3.8-2c0.7-0.2,1.4-0.4,2.1-0.5c0.7-0.1,1.4-0.2,2.1-0.2
			c1.5,0,3,0.3,4.4,0.9c0.6,0.3,1.3,0.6,1.9,0.9c0.6,0.4,1.2,0.8,1.8,1.3l1.6-13.3h0.8L334.5,78c-0.3,2.2-1.2,4.2-2.8,5.8
			c-1.5,1.5-3.3,2.5-5.4,3.1c-0.9,0.2-1.8,0.3-2.8,0.3c-1.5,0-2.9-0.3-4.2-0.9c-1.2-0.5-2.3-1.2-3.1-2.2c-0.9-0.9-1.6-2-2.1-3.3
			c-0.5-1.3-0.8-2.6-0.8-4c0-1.4,0.3-2.8,0.8-4.2C314.4,71.5,315.1,70.3,316,69.1z M316.4,83.2c0.7,0.7,1.4,1.4,2.2,1.8
			c0.8,0.5,1.6,0.8,2.5,1s1.7,0.3,2.6,0.3c0.9,0,1.8-0.1,2.6-0.3c0.8-0.2,1.6-0.5,2.4-0.9c0.8-0.4,1.6-1,2.3-1.6
			c0.7-0.7,1.3-1.5,1.8-2.4c0.5-0.9,0.8-2,1-3.2l1.3-10.5c-1.4-1.3-2.7-2.2-4.1-2.7c-1.4-0.5-2.8-0.8-4.1-0.7
			c-1.3,0-2.6,0.3-3.8,0.8s-2.3,1.1-3.3,1.8c-1,0.7-1.9,1.6-2.8,2.7c-0.8,1-1.5,2.2-2,3.4s-0.8,2.5-0.8,3.8
			c-0.1,1.3,0.2,2.6,0.7,3.9C315.2,81.6,315.7,82.5,316.4,83.2z"/>
		<path class="st1" d="M344,86.3c-1.4-0.6-2.6-1.4-3.6-2.6c-1-1.2-1.7-2.5-2.1-3.9c-0.4-1.5-0.5-3-0.3-4.6c0.2-1.6,0.7-3.1,1.4-4.6
			c0.8-1.4,1.8-2.7,3.1-3.9c1.3-1.2,2.7-2.1,4.2-2.7c1.5-0.6,3.1-0.9,4.7-0.9c1.6,0,3.1,0.3,4.4,0.9c1.4,0.6,2.6,1.5,3.6,2.6
			c0.9,1.1,1.6,2.4,2.1,3.8s0.5,3,0.3,4.7c-0.2,1.6-0.7,3.2-1.5,4.6c-0.8,1.5-1.8,2.7-3,3.8c-1.3,1.1-2.7,2-4.2,2.6
			c-1.5,0.6-3.1,0.9-4.7,0.9C346.9,87.2,345.4,86.9,344,86.3z M346.9,65c-1.4,0.6-2.7,1.4-3.8,2.4c-1.1,1-2.1,2.2-2.8,3.6
			c-0.8,1.4-1.2,2.8-1.4,4.3c-0.2,1.5-0.1,3,0.3,4.3s1.1,2.5,2,3.5s2,1.8,3.3,2.4c1.3,0.6,2.7,0.9,4.2,0.9c1.5,0,3-0.3,4.4-0.9
			c1.4-0.6,2.7-1.4,3.8-2.4s2.1-2.2,2.8-3.5s1.2-2.8,1.4-4.3c0.2-1.5,0.1-3-0.3-4.3c-0.4-1.4-1-2.5-1.9-3.6c-0.9-1-2-1.8-3.2-2.4
			c-1.3-0.6-2.7-0.9-4.2-0.9C349.8,64.1,348.4,64.4,346.9,65z"/>
	</g>
	<polygon class="st2" points="23.8,81.7 79.3,53.5 24.3,23.4 	"/>
	<polygon class="st3" points="8.1,74.5 79,38.4 8.7,0 	"/>
	<polygon class="st0" points="58.8,112.9 16.7,90.6 59.2,68.2 	"/>
	<polyline class="st4" points="14.1,8.4 86.6,49.5 0.4,92.4 	"/>
	<line class="st4" x1="66.8" y1="113.1" x2="13.8" y2="85.2"/>
</g>
</svg>
